<svg width="1434" height="2082" viewBox="0 0 1434 2082" fill="none" xmlns="http://www.w3.org/2000/svg">
<g opacity="0.15" clip-path="url(#clip0_889_97)">
<path d="M1440 -12.9375H0V0.357675H1440V-12.9375Z" fill="#0038a7" fill-opacity="0.45"/>
<path d="M1440 22.0664H0V35.3616H1440V22.0664Z" fill="#0038a7" fill-opacity="0.45"/>
<path d="M1440 57.1221H0V70.4172H1440V57.1221Z" fill="#0038a7" fill-opacity="0.45"/>
<path d="M1440 92.126H0V105.421H1440V92.126Z" fill="#0038a7" fill-opacity="0.45"/>
<path d="M1440 127.13H0V140.425H1440V127.13Z" fill="#0038a7" fill-opacity="0.45"/>
<path d="M1440 162.186H0V175.481H1440V162.186Z" fill="#0038a7" fill-opacity="0.45"/>
<path d="M1440 197.189H0V210.485H1440V197.189Z" fill="#0038a7" fill-opacity="0.45"/>
<path d="M1440 232.192H0V245.488H1440V232.192Z" fill="#0038a7" fill-opacity="0.45"/>
<path d="M1440 267.248H0V280.543H1440V267.248Z" fill="#0038a7" fill-opacity="0.45"/>
<path d="M1440 302.252H0V315.547H1440V302.252Z" fill="#0038a7" fill-opacity="0.45"/>
<path d="M1440 337.256H0V350.551H1440V337.256Z" fill="#0038a7" fill-opacity="0.45"/>
<path d="M1440 372.312H0V385.607H1440V372.312Z" fill="#0038a7" fill-opacity="0.45"/>
<path d="M1440 407.314H0V420.61H1440V407.314Z" fill="#0038a7" fill-opacity="0.45"/>
<path d="M1440 442.318H0V455.614H1440V442.318Z" fill="#0038a7" fill-opacity="0.45"/>
<path d="M1440 477.374H0V490.669H1440V477.374Z" fill="#0038a7" fill-opacity="0.45"/>
<path d="M1440 512.378H0V525.673H1440V512.378Z" fill="#0038a7" fill-opacity="0.45"/>
<path d="M1440 547.382H0V560.677H1440V547.382Z" fill="#0038a7" fill-opacity="0.45"/>
<path d="M1440 582.438H0V595.733H1440V582.438Z" fill="#0038a7" fill-opacity="0.45"/>
<path d="M1440 617.441H0V630.737H1440V617.441Z" fill="#0038a7" fill-opacity="0.45"/>
<path d="M1440 652.444H0V665.739H1440V652.444Z" fill="#0038a7" fill-opacity="0.45"/>
<path d="M1440 687.5H0V700.795H1440V687.5Z" fill="#0038a7" fill-opacity="0.45"/>
<path d="M1440 722.504H0V735.799H1440V722.504Z" fill="#0038a7" fill-opacity="0.45"/>
<path d="M1440 757.56H0V770.855H1440V757.56Z" fill="#0038a7" fill-opacity="0.45"/>
<path d="M1440 792.563H0V805.859H1440V792.563Z" fill="#0038a7" fill-opacity="0.45"/>
<path d="M1440 827.566H0V840.862H1440V827.566Z" fill="#0038a7" fill-opacity="0.45"/>
<path d="M1440 862.623H0V875.918H1440V862.623Z" fill="#0038a7" fill-opacity="0.45"/>
<path d="M1440 897.626H0V910.921H1440V897.626Z" fill="#0038a7" fill-opacity="0.45"/>
<path d="M1440 932.63H0V945.925H1440V932.63Z" fill="#0038a7" fill-opacity="0.45"/>
<path d="M1440 967.686H0V980.981H1440V967.686Z" fill="#0038a7" fill-opacity="0.45"/>
<path d="M1440 1002.69H0V1015.98H1440V1002.69Z" fill="#0038a7" fill-opacity="0.45"/>
<path d="M1440 1037.69H0V1050.99H1440V1037.69Z" fill="#0038a7" fill-opacity="0.45"/>
<path d="M1440 1072.75H0V1086.04H1440V1072.75Z" fill="#0038a7" fill-opacity="0.45"/>
<path d="M1440 1107.75H0V1121.05H1440V1107.75Z" fill="#0038a7" fill-opacity="0.45"/>
<path d="M1440 1142.76H0V1156.05H1440V1142.76Z" fill="#0038a7" fill-opacity="0.45"/>
<path d="M1440 1177.81H0V1191.11H1440V1177.81Z" fill="#0038a7" fill-opacity="0.45"/>
<path d="M1440 1212.82H0V1226.11H1440V1212.82Z" fill="#0038a7" fill-opacity="0.45"/>
<path d="M1440 1247.82H0V1261.11H1440V1247.82Z" fill="#0038a7" fill-opacity="0.45"/>
<path d="M1440 1282.88H0V1296.17H1440V1282.88Z" fill="#0038a7" fill-opacity="0.45"/>
<path d="M1440 1317.88H0V1331.17H1440V1317.88Z" fill="#0038a7" fill-opacity="0.45"/>
<path d="M1440 1352.88H0V1366.18H1440V1352.88Z" fill="#0038a7" fill-opacity="0.45"/>
<path d="M1440 1387.94H0V1401.23H1440V1387.94Z" fill="#0038a7" fill-opacity="0.45"/>
<path d="M1440 1422.94H0V1436.24H1440V1422.94Z" fill="#0038a7" fill-opacity="0.45"/>
<path d="M1440 1457.95H0V1471.24H1440V1457.95Z" fill="#0038a7" fill-opacity="0.45"/>
<path d="M1440 1493H0V1506.3H1440V1493Z" fill="#0038a7" fill-opacity="0.45"/>
<path d="M1440 1528H0V1541.3H1440V1528Z" fill="#0038a7" fill-opacity="0.45"/>
<path d="M1440 1563.01H0V1576.3H1440V1563.01Z" fill="#0038a7" fill-opacity="0.45"/>
<path d="M1440 1598.06H0V1611.36H1440V1598.06Z" fill="#0038a7" fill-opacity="0.45"/>
<path d="M1440 1633.07H0V1646.36H1440V1633.07Z" fill="#0038a7" fill-opacity="0.45"/>
<path d="M1440 1668.07H0V1681.37H1440V1668.07Z" fill="#0038a7" fill-opacity="0.45"/>
<path d="M1440 1703.13H0V1716.42H1440V1703.13Z" fill="#0038a7" fill-opacity="0.45"/>
<path d="M1440 1738.13H0V1751.43H1440V1738.13Z" fill="#0038a7" fill-opacity="0.45"/>
<path d="M1440 1773.13H0V1786.43H1440V1773.13Z" fill="#0038a7" fill-opacity="0.45"/>
<path d="M1440 1808.19H0V1821.48H1440V1808.19Z" fill="#0038a7" fill-opacity="0.45"/>
<path d="M1440 1843.19H0V1856.49H1440V1843.19Z" fill="#0038a7" fill-opacity="0.45"/>
<path d="M1440 1878.2H0V1891.49H1440V1878.2Z" fill="#0038a7" fill-opacity="0.45"/>
<path d="M1440 1913.25H0V1926.55H1440V1913.25Z" fill="#0038a7" fill-opacity="0.45"/>
<path d="M1440 1948.26H0V1961.55H1440V1948.26Z" fill="#0038a7" fill-opacity="0.45"/>
<path d="M1440 1983.26H0V1996.55H1440V1983.26Z" fill="#0038a7" fill-opacity="0.45"/>
<path d="M1440 2018.32H0V2031.61H1440V2018.32Z" fill="#0038a7" fill-opacity="0.45"/>
<path d="M1440 2053.32H0V2066.61H1440V2053.32Z" fill="#0038a7" fill-opacity="0.45"/>
</g>
<defs>
<clipPath id="clip0_889_97">
<rect width="1440" height="4496" fill="white" transform="translate(0 -118)"/>
</clipPath>
</defs>
</svg>
